inDegrees=no
num_controls=7
num_derivatives=13
num_iterations=200
num_multipliers=7
num_parameters=0
num_slacks=7
num_states=26
objective=5.972896
objective_accelerations=0.793589
objective_balance=0.007142
objective_effort=0.532598
objective_height=4.524325
objective_ligament=0.115242
solver_duration=1666.525891
status=Solve_Succeeded
success=true
DataType=double
version=3
OpenSimVersion=4.4-2022-07-23-0e9fedc
endheader
time	/jointset/ground_pelvis/pelvis_tilt/value	/jointset/ground_pelvis/pelvis_tx/value	/jointset/ground_pelvis/pelvis_ty/value	/jointset/hip_r/hip_flexion_r/value	/jointset/hip_r/hip_adduction_r/value	/jointset/hip_r/hip_rotation_r/value	/jointset/back/lumbar_extension/value	/jointset/patellofemoral_r/patellar_flexion_r/value	/jointset/knee_r/knee_flexion_r/value	/jointset/knee_r/knee_adduction_r/value	/jointset/knee_r/knee_rotation_r/value	/jointset/ankle_r/ankle_angle_r/value	/jointset/subtalar_r/subtalar_angle_r/value	/jointset/ground_pelvis/pelvis_tilt/speed	/jointset/ground_pelvis/pelvis_tx/speed	/jointset/ground_pelvis/pelvis_ty/speed	/jointset/hip_r/hip_flexion_r/speed	/jointset/hip_r/hip_adduction_r/speed	/jointset/hip_r/hip_rotation_r/speed	/jointset/back/lumbar_extension/speed	/jointset/patellofemoral_r/patellar_flexion_r/speed	/jointset/knee_r/knee_flexion_r/speed	/jointset/knee_r/knee_adduction_r/speed	/jointset/knee_r/knee_rotation_r/speed	/jointset/ankle_r/ankle_angle_r/speed	/jointset/subtalar_r/subtalar_angle_r/speed	/forceset/tau_hip_flexion_r	/forceset/tau_hip_adduction_r	/forceset/tau_hip_rotation_r	/forceset/tau_knee_flexion_r	/forceset/tau_ankle_angle_r	/forceset/tau_subtalar_angle_r	/forceset/tau_lumbar_extension	lambda_cid13_p0	lambda_cid14_p0	lambda_cid14_p1	lambda_cid14_p2	lambda_cid14_p3	lambda_cid14_p4	lambda_cid14_p5	/jointset/ground_pelvis/pelvis_tilt/accel	/jointset/ground_pelvis/pelvis_tx/accel	/jointset/ground_pelvis/pelvis_ty/accel	/jointset/hip_r/hip_flexion_r/accel	/jointset/hip_r/hip_adduction_r/accel	/jointset/hip_r/hip_rotation_r/accel	/jointset/back/lumbar_extension/accel	/jointset/patellofemoral_r/patellar_flexion_r/accel	/jointset/knee_r/knee_flexion_r/accel	/jointset/knee_r/knee_adduction_r/accel	/jointset/knee_r/knee_rotation_r/accel	/jointset/ankle_r/ankle_angle_r/accel	/jointset/subtalar_r/subtalar_angle_r/accel	gamma_cid13_p0	gamma_cid14_p0	gamma_cid14_p1	gamma_cid14_p2	gamma_cid14_p3	gamma_cid14_p4	gamma_cid14_p5
1.5	-0.1007900754722852	0.008460957367087157	0.7855255692380301	0.9337836998264558	-0.2200066336731049	-0.127358649951393	-0.6436328578957119	1.048503736264382	1.048503736264323	-0.08808141605010676	0.1745299630690481	0.3154979982860138	0.1518487030766835	0.5192875968771156	0.2400701779469919	0.6415590561200399	-2.332093989832536	0.0635191101252785	-0.255791699185713	0.7971938740640956	-2.24708478534498	-2.247084785344972	0.4032184064262654	0.0004615844882537093	-0.531187481524523	-0.1206559283891318	-0.173679713642714	-0.009216541237169909	0.0210325217531807	-0.3405408061139876	0.04788603189157084	0.006039511202570853	0.2246796374148347	-4.437543150400868	-26.16521943732782	-2.176887697183686	1.018576522051479	-8.041822763066659	-628.1993040427745	73.52201791546582	0.3866727840026855	0.7864244114497211	-0.5841970624616986	-1.288194882674075	-0.1596924621674234	-0.1934209615195567	2.12954908110153	-1.565416377190882	-1.565416377190877	0.8175823031673336	-0.09484770985790443	-0.8767743278694596	-0.5161453312879484	5.511024825178885e-08	-2.605864431844674e-07	-3.065225078655019e-06	-1.147976271737816e-06	4.224342883725322e-07	2.697820383401329e-07	-2.273925961040512e-06
1.51	-0.09557818004375004	0.01090073351494769	0.7919105994032521	0.9104006503829143	-0.2193801797302505	-0.1299297772889362	-0.6355562722144653	1.025957071048863	1.025957071048791	-0.08401047175507058	0.1745326939439087	0.3101430073065342	0.1506157246526419	0.5230046841923944	0.2478556851937234	0.6353008686278631	-2.344194094857579	0.0617656746342632	-0.2584533088160933	0.818004098555243	-2.261925975447478	-2.261925975447474	0.4108949376641933	5.468419320622572e-05	-0.5397076760914514	-0.1258856685908475	-0.1656007191825597	-0.01001231260877801	0.02076805915314266	-0.3350235706803713	0.04913393301544799	0.005400854252054464	0.2171083637157295	-5.322867716944788	-25.38637789844733	-2.211887584756809	0.9030789344256533	-8.11721018332503	-621.7714470961901	72.74262530838458	0.3511677150528948	0.7702928946061528	-0.6684850599560034	-1.122686998320009	-0.1843915148724171	-0.3053060244124021	2.038884588626627	-1.395144597903494	-1.395144597904228	0.7309259983622632	-0.01839617556190116	-0.8240996521802796	-0.5189039566472485	7.357952801861448e-08	-2.43934139912966e-07	-3.176729603537695e-06	-1.073968561391013e-06	4.207550250195302e-07	2.922903142974448e-07	-2.269852021065852e-06
1.52	-0.09033172554010806	0.01341750053793978	0.7982286766000806	0.8869062461519478	-0.218771504626774	-0.1325280757348825	-0.6272751591972052	1.003271659078025	1.003271659078051	-0.07986511465478488	0.1745303988199523	0.3047059228551683	0.1493319457081763	0.5261994118981593	0.2554683529733036	0.6281684624412944	-2.354364947318646	0.05996334225106132	-0.2612259208710753	0.8380993412665977	-2.27483413639495	-2.274834136394951	0.4181009674723842	-0.0005436155511900055	-0.5476061759014094	-0.1308160324739167	-0.1575217247223678	-0.01080808398028654	0.02050359655307372	-0.3295063352467635	0.05038183413934696	0.004762197301704915	0.2095370900166518	-6.289912954028018	-24.59997142304981	-2.234804488458579	0.7733679155594602	-8.221697281740882	-615.2569890009314	71.99522563433399	0.2822008620998795	0.7518565180194552	-0.7590408013400523	-0.9023443698787206	-0.1694718406046627	-0.2156214464398383	1.986552725142964	-1.17881054618605	-1.178810546186047	0.7234820172199037	-0.1331275997277769	-0.7524353764753461	-0.4562700675585603	9.055835837430289e-08	-2.259876310589731e-07	-3.247742729742374e-06	-9.855742421668012e-07	4.161896331383112e-07	3.10634105915359e-07	-2.244708829331984e-06
1.53	-0.08505591428783957	0.01600936740237151	0.8044711377082906	0.8633198645328414	-0.2181809437896625	-0.1351546728895467	-0.6187968914867403	0.9804668631258726	0.9804668631258878	-0.07565021005441483	0.1745210957245527	0.2991929368695266	0.1480005797645681	0.5288772416020282	0.2628588869994674	0.620185082136853	-2.362574187791487	0.05816025792419655	-0.2641251105544213	0.8574117854558558	-2.285794695809905	-2.285794695809904	0.4247625553089112	-0.001355622460907195	-0.5548872688825855	-0.1353787322596891	-0.1496973702264728	-0.01118635861149333	0.02009179102614584	-0.323748224708753	0.05082645952384491	0.003899280594621332	0.2020859230624732	-7.337692370452798	-24.12063012811957	-2.410079615812892	0.6693131201745376	-7.960363052827156	-609.080427447406	70.93670957961557	0.2477013442575691	0.7258128023320579	-0.8387218036201594	-0.7296691267406424	-0.1843257823562987	-0.3316250630877381	1.882227960250346	-1.005147744482653	-1.00514774448247	0.6194312648015029	-0.0612796088492038	-0.700290401912861	-0.4451196159940323	1.05953586230658e-07	-2.066660287735828e-07	-3.275733744851683e-06	-8.818941510103427e-07	4.085577296958616e-07	3.24553132922663e-07	-2.19717955760396e-06
1.54	-0.07975589927458537	0.01867377179854835	0.8106296179817315	0.839661499460861	-0.2176081336065485	-0.1378111734077933	-0.6101297717954954	0.9575623677585074	0.9575623677584926	-0.07137230275609723	0.1745024640855768	0.2936102711254773	0.1466258168867206	0.5310401640949753	0.2699758593223227	0.6113722954874625	-2.368761637894487	0.05641321145215224	-0.2672065935899923	0.8758697374224341	-2.294774019438159	-2.294774019438157	0.4307015070627284	-0.002409324260841332	-0.561542127582726	-0.1394954193217595	-0.1418730157305464	-0.01156463324263743	0.01967998549903553	-0.3179901141707669	0.0512710849083545	0.003036363887636559	0.1946347561083196	-8.464296587136515	-23.63304749676298	-2.571612901436841	0.5490205855496514	-7.730672226469655	-602.8125247487918	69.91753997507224	0.1792194199155092	0.6971441773577516	-0.9249220703298597	-0.4979862959106521	-0.1582642696405838	-0.2520801168849148	1.815654280607005	-0.7825633888457483	-0.7825633888457475	0.5789548006779557	-0.1814665777710172	-0.6271885202681731	-0.3670675228182263	1.368088268590126e-07	-1.205092906917575e-07	-2.919535790023351e-06	-3.014244912207568e-07	3.327364047066254e-07	3.490151987756763e-07	-1.91032381103555e-06
1.55	-0.07443695778906981	0.02140797497149905	0.8166959364836017	0.8159513599018057	-0.2170529224031514	-0.1404962219875425	-0.6012824626826264	0.9345784154504888	0.9345784154504788	-0.06703535151492997	0.1744708398645433	0.2879642327634531	0.1452114221477325	0.5326500760630669	0.2768176902717848	0.6017651684960234	-2.372927671091805	0.05462972761605226	-0.2698306289337841	0.8934328668626351	-2.301682862843513	-2.301682862843511	0.4365886926749958	-0.003936994023365783	-0.5675504694115815	-0.1433202738349118	-0.1337305174059528	-0.01289153618832303	0.01932294343705111	-0.3133811132284621	0.05269531057413931	0.002364909825698268	0.1870217616430601	-9.661711823378905	-22.84677241574661	-2.578780628355182	0.3825127837044273	-7.751892358878709	-597.0942632851097	69.41933920552457	0.13718062372299	0.6706583200179176	-0.9974622794718381	-0.3251039122705092	-0.188196953914111	-0.2713463451471231	1.702759532430814	-0.5950504208764085	-0.5950504208762639	0.5783605022525039	-0.1413936661617023	-0.5703307502847718	-0.3807973350272379	1.854766908985828e-07	4.265314732943444e-08	-2.120685326353848e-06	8.283896715591414e-07	1.783490070656611e-07	3.856246789509191e-07	-1.347722343455405e-06
